<svg width="35" height="35" viewBox="0 0 35 35" fill="none" xmlns="http://www.w3.org/2000/svg">
<path d="M33.854 6.05445H14.6351C14.0578 6.05445 13.4933 6.2259 13.0135 6.5463L0.164404 14.9943C0.0620703 15.0634 0 15.1784 0 15.3026V19.7135C0 19.9182 0.16584 20.0847 0.370439 20.0847H2.05126C7.1143 20.0847 11.5711 23.5854 12.7107 28.2985C12.8018 28.6774 13.1376 28.9455 13.5265 28.9455H33.854C34.487 28.9455 35 28.4325 35 27.7996V7.20043C35 6.56742 34.487 6.05445 33.854 6.05445Z" fill="#5FED65"/>
<path d="M15.8051 26.1929C15.4163 26.1929 15.0804 25.9247 14.9894 25.5458C13.8497 20.8327 9.39292 17.332 4.32988 17.332H2.64906C2.44439 17.332 2.27862 17.1655 2.27862 16.9609V13.6035L0.164404 14.9936C0.0620703 15.0627 0 15.1778 0 15.3019V19.7129C0 19.9175 0.16584 20.0841 0.370439 20.0841H2.05126C7.1143 20.0841 11.5711 23.5847 12.7107 28.2978C12.8018 28.6767 13.1376 28.9449 13.5265 28.9449H33.854C34.487 28.9449 35 28.4318 35 27.7989V26.1929H15.8051Z" fill="#41E041"/>
<path d="M32.9482 8.69124V17.5287C32.9482 17.8526 32.6857 18.1151 32.3618 18.1151H3.48544H2.29708C2.16091 18.1151 2.05078 18.0051 2.05078 17.8688V16.3319C2.05078 16.2493 2.09173 16.1731 2.16016 16.1272L14.1526 8.25155C14.2958 8.15558 14.4624 8.10547 14.6345 8.10547H32.3617C32.6857 8.10554 32.9482 8.36804 32.9482 8.69124Z" fill="#242428"/>
<path d="M14.843 10.2068C14.9862 10.1109 15.1528 10.0608 15.325 10.0608H32.8973V8.5857C32.8973 8.2625 32.6348 8 32.311 8H14.5837C14.4115 8 14.245 8.05011 14.1018 8.14608L2.10938 16.0218C2.04095 16.0677 2 16.1439 2 16.2265V17.7634C2 17.8996 2.11006 18.0097 2.2463 18.0097H2.96175L14.843 10.2068Z" fill="#2F2F35"/>
<path d="M31.5557 20.5428V21.9224C31.5557 22.1305 31.3864 22.2992 31.1789 22.2992H29.582V20.166H31.1789C31.3863 20.166 31.5557 20.3347 31.5557 20.5428Z" fill="#74767F"/>
<path d="M29.5826 20.166V22.2992H27.0916C26.8835 22.2992 26.7148 22.1305 26.7148 21.9224V20.5428C26.7148 20.3347 26.8835 20.166 27.0916 20.166H29.5826Z" fill="#0B9955"/>
</svg>
