<svg width="16" height="16" viewBox="0 0 16 16" fill="none" xmlns="http://www.w3.org/2000/svg">
<path fill-rule="evenodd" clip-rule="evenodd" d="M8 16C12.4182 16 16 12.4183 16 8C16 3.58172 12.4182 0 8 0C3.58177 0 0 3.58172 0 8C0 12.4183 3.58177 16 8 16ZM6.5599 6.26667C6.5599 6.77334 6.94922 7.09867 8.1599 7.41333C9.37057 7.728 10.6667 8.24533 10.6667 9.75999C10.6667 10.8533 9.8401 11.456 8.8 11.6533V12C8.8 12.4427 8.44271 12.8 8 12.8C7.55729 12.8 7.2 12.4427 7.2 12V11.6427C6.4 11.472 5.69063 11.0347 5.38672 10.2933C5.25339 9.96266 5.50391 9.6 5.86146 9.6H6.01068C6.22943 9.6 6.41068 9.74933 6.49063 9.95734C6.66667 10.4053 7.12005 10.72 8 10.72C9.17865 10.72 9.4401 10.1333 9.4401 9.76533C9.4401 9.26934 9.17344 8.8 7.8401 8.48C6.35208 8.12267 5.33333 7.50933 5.33333 6.27733C5.33333 5.248 6.16536 4.57599 7.2 4.352V4C7.2 3.55734 7.55729 3.2 8 3.2C8.44271 3.2 8.8 3.55734 8.8 4V4.368C9.63203 4.57067 10.1547 5.09333 10.3786 5.72267C10.5013 6.05334 10.2508 6.4 9.8987 6.4H9.73854C9.51458 6.4 9.33854 6.24001 9.27474 6.02666C9.13594 5.568 8.75729 5.28 8 5.28C7.0987 5.28 6.5599 5.68534 6.5599 6.26667Z" fill="#97F03E"/>
</svg>
