<svg width="11" height="15" viewBox="0 0 11 15" fill="none" xmlns="http://www.w3.org/2000/svg">
<path d="M5.5 14.5C5.5 14.5 10.5 9.52475 10.5 5.75C10.5 4.35761 9.97322 3.02226 9.03553 2.03769C8.09785 1.05312 6.82608 0.5 5.5 0.5C4.17392 0.5 2.90215 1.05312 1.96447 2.03769C1.02678 3.02226 0.5 4.35761 0.5 5.75C0.5 9.52475 5.5 14.5 5.5 14.5ZM5.5 8.375C4.83696 8.375 4.20107 8.09844 3.73223 7.60616C3.26339 7.11387 3 6.44619 3 5.75C3 5.05381 3.26339 4.38613 3.73223 3.89384C4.20107 3.40156 4.83696 3.125 5.5 3.125C6.16304 3.125 6.79893 3.40156 7.26777 3.89384C7.73661 4.38613 8 5.05381 8 5.75C8 6.44619 7.73661 7.11387 7.26777 7.60616C6.79893 8.09844 6.16304 8.375 5.5 8.375Z" fill="#5C4B00" fill-opacity="0.55"/>
</svg>
