<svg width="42" height="41" viewBox="0 0 42 41" fill="none" xmlns="http://www.w3.org/2000/svg">
<g filter="url(#filter0_d_165_374)">
<path d="M20.0489 11.927C20.3483 11.0057 21.6517 11.0057 21.9511 11.9271L22.5716 13.8369C22.7055 14.2489 23.0894 14.5279 23.5227 14.5279H25.5308C26.4995 14.5279 26.9023 15.7675 26.1186 16.3369L24.494 17.5172C24.1435 17.7719 23.9968 18.2232 24.1307 18.6353L24.7512 20.5451C25.0506 21.4664 23.9961 22.2325 23.2124 21.6631L21.5878 20.4828C21.2373 20.2281 20.7627 20.2281 20.4122 20.4828L18.7876 21.6631C18.0039 22.2325 16.9494 21.4664 17.2488 20.5451L17.8693 18.6353C18.0032 18.2232 17.8565 17.7719 17.506 17.5172L15.8814 16.3369C15.0977 15.7675 15.5005 14.5279 16.4692 14.5279H18.4773C18.9106 14.5279 19.2945 14.2489 19.4284 13.8369L20.0489 11.927Z" fill="#FFD82F"/>
</g>
<defs>
<filter id="filter0_d_165_374" x="0.467285" y="0.236053" width="41.0654" height="40.6226" filterUnits="userSpaceOnUse" color-interpolation-filters="sRGB">
<feFlood flood-opacity="0" result="BackgroundImageFix"/>
<feColorMatrix in="SourceAlpha" type="matrix" values="0 0 0 0 0 0 0 0 0 0 0 0 0 0 0 0 0 0 127 0" result="hardAlpha"/>
<feOffset dy="4"/>
<feGaussianBlur stdDeviation="7.5"/>
<feComposite in2="hardAlpha" operator="out"/>
<feColorMatrix type="matrix" values="0 0 0 0 1 0 0 0 0 0.847059 0 0 0 0 0.184314 0 0 0 0.5 0"/>
<feBlend mode="normal" in2="BackgroundImageFix" result="effect1_dropShadow_165_374"/>
<feBlend mode="normal" in="SourceGraphic" in2="effect1_dropShadow_165_374" result="shape"/>
</filter>
</defs>
</svg>
